<svg width="92" height="55" viewBox="0 0 92 55" fill="none" xmlns="http://www.w3.org/2000/svg">
<path d="M18.9822 26.1917C19.7625 26.1917 20.551 26.1998 21.3477 26.216C22.1443 26.216 22.9328 26.2242 23.7132 26.2404C24.4936 26.2567 25.2415 26.2973 25.9568 26.3624L25.8349 28.0207H19.5187C18.9496 28.0207 18.5351 28.1507 18.2749 28.4109C18.0148 28.6547 17.8847 29.0612 17.8847 29.6302V43.0431H15.7387V29.2156C15.7387 28.2564 16.0313 27.5167 16.6166 26.9964C17.2019 26.4599 17.9904 26.1917 18.9822 26.1917ZM16.1533 33.5321H24.9082V35.2636H16.1533V33.5321Z" fill="#1C558E"/>
<path d="M35.4449 26.1917C36.2578 26.1917 37.0707 26.1917 37.8836 26.1917C38.7128 26.1917 39.5257 26.2079 40.3223 26.2404C41.1352 26.2567 41.9156 26.2892 42.6635 26.338L42.5659 28.0207H35.8107C35.3067 28.0207 34.9328 28.1507 34.6889 28.4109C34.4613 28.6547 34.3475 29.0612 34.3475 29.6302V39.6289C34.3475 40.1979 34.4613 40.6125 34.6889 40.8726C34.9328 41.1328 35.3067 41.2628 35.8107 41.2628H42.5659L42.6635 42.9211C41.9156 42.9699 41.1352 43.0024 40.3223 43.0187C39.5257 43.0349 38.7128 43.0431 37.8836 43.0431C37.0707 43.0593 36.2578 43.0675 35.4449 43.0675C34.4532 43.0675 33.6647 42.8073 33.0794 42.2871C32.5103 41.7506 32.2177 41.0352 32.2014 40.141V29.1181C32.2177 28.2076 32.5103 27.4923 33.0794 26.972C33.6647 26.4518 34.4532 26.1917 35.4449 26.1917ZM32.6404 33.2883H41.6148V35.0197H32.6404V33.2883Z" fill="#1C558E"/>
<path d="M62.3577 26.216V42.1895C62.3577 42.7586 62.0813 43.0431 61.5285 43.0431H59.4312C59.1874 43.0431 58.9923 42.9862 58.846 42.8724C58.6996 42.7586 58.5777 42.5879 58.4802 42.3602L52.798 30.435C52.6517 30.1098 52.4809 29.744 52.2859 29.3376C52.0908 28.9311 51.9444 28.5572 51.8469 28.2158H51.4567C51.4892 28.5734 51.5136 28.9393 51.5299 29.3132C51.5461 29.6871 51.5542 30.0611 51.5542 30.435V43.0431H49.4082V27.0696C49.4082 26.5006 49.6927 26.216 50.2617 26.216H52.2859C52.5297 26.216 52.7248 26.2729 52.8711 26.3867C53.0175 26.5006 53.1394 26.6713 53.2369 26.8989L58.7484 38.5315C58.9272 38.8729 59.1142 39.2631 59.3093 39.7021C59.5207 40.1248 59.7158 40.5475 59.8946 40.9702H60.3092C60.2929 40.5312 60.2767 40.1004 60.2604 39.6777C60.2441 39.255 60.236 38.8323 60.236 38.4095V26.216H62.3577Z" fill="#1C558E"/>
<path d="M72.1632 26.216V43.0431H70.0171V26.216H72.1632Z" fill="#1C558E"/>
<path d="M18.9822 26.1917C19.7625 26.1917 20.551 26.1998 21.3477 26.216C22.1443 26.216 22.9328 26.2242 23.7132 26.2404C24.4936 26.2567 25.2415 26.2973 25.9568 26.3624L25.8349 28.0207H19.5187C18.9496 28.0207 18.5351 28.1507 18.2749 28.4109C18.0148 28.6547 17.8847 29.0612 17.8847 29.6302V43.0431H15.7387V29.2156C15.7387 28.2564 16.0313 27.5167 16.6166 26.9964C17.2019 26.4599 17.9904 26.1917 18.9822 26.1917ZM16.1533 33.5321H24.9082V35.2636H16.1533V33.5321Z" fill="url(#paint0_linear_1429_69)"/>
<path d="M7.98406 27.1862C7.74151 29.1266 9.43265 31.7004 10.3085 32.7447C10.1738 32.3741 9.86385 31.4107 9.70214 30.5213C9.50002 29.4096 9.39895 29.1064 9.90427 27.4894C10.4096 25.8724 11.3192 25.4681 13.3404 24.0532C15.3617 22.6383 17.6862 19.6064 18.4947 17.5851C19.3032 15.5638 18.7979 11.3192 17.9894 8.89363C17.3426 6.9532 15.4965 4.85107 14.6543 4.04256C14.9575 4.61525 15.6851 5.98298 16.1702 6.87235C16.7766 7.98405 17.0798 10.8138 16.7766 14.9575C16.4734 19.1011 13.9468 20.9202 12.7341 22.133C11.5213 23.3458 8.28726 24.7607 7.98406 27.1862Z" fill="#2FC8E8"/>
<path d="M10.7128 29.1064C10.3085 30.6426 11.3529 32.0373 11.9256 32.5426C11.7571 32.2731 11.4404 31.4915 11.5213 30.5213C11.6224 29.3085 12.4309 27.8936 14.6543 26.7819C16.8777 25.6702 18.7979 24.3564 20.4149 22.133C22.0319 19.9096 21.8298 17.5851 21.3245 14.4521C20.9202 11.9458 19.4717 9.2305 18.7979 8.18618C18.9663 8.82625 19.3639 10.4298 19.6064 11.7234C19.9096 13.3404 19.8085 14.3511 20.0107 17.1809C20.2128 20.0107 18.4947 21.7287 15.9681 23.649C13.4415 25.5692 11.2181 27.1862 10.7128 29.1064Z" fill="#2FC8E8"/>
<path d="M5.35639 26.6809C5.35638 28.5 7.64717 31.5656 8.89363 32.7447C8.08512 31.4309 6.69044 28.399 6.77129 26.7819C6.87235 24.7607 7.75873 23.6069 9.60108 22.133C11.6224 20.516 13.9468 18.3936 14.9575 16.4734C15.9681 14.5532 15.766 11.5213 15.2607 8.79256C14.7553 6.06384 12.8351 3.84043 10.9149 2.22341C9.37874 0.929788 6.63654 0.202128 5.45746 0C5.8954 0.202128 7.01384 0.72766 7.98406 1.21277C9.19682 1.81915 9.90427 2.62766 11.2181 4.34575C12.5319 6.06384 13.9468 9.29788 13.9468 13.0372C13.9468 16.7766 11.2181 18.6968 8.59044 20.7181C5.96278 22.7394 5.3564 24.3476 5.35639 26.6809Z" fill="#2FC8E8"/>
<path d="M15.867 34.5639C14.7553 37.5958 10.8603 43.775 11.3191 47.9043C11.7234 51.5426 16.3387 53.9345 18.2926 54.7767C16.945 55.0125 13.3202 54.9788 10.8138 52.5533C7.68085 49.5213 7.5479 46.5943 8.99468 42.4469C10.5106 38.1011 14.1489 35.2713 14.5532 33.6543C14.8766 32.3607 15.4858 28.8376 16.0649 27.7402C16.0649 27.7301 16.0832 27.6793 16.1564 27.5573C16.2478 27.4049 16.4612 27.1001 16.9795 26.7038C17.394 26.3868 18.1683 26.2465 18.5036 26.216C18.3614 26.3075 17.8818 26.6428 17.1014 27.2525C16.4906 27.7297 16.3361 28.8978 16.3361 29.763C16.3491 29.9672 16.359 30.1777 16.3654 30.3923C16.4071 31.8083 16.2923 33.4041 15.867 34.5639Z" fill="#1C558E"/>
<path d="M11.9255 33.7554C13.3809 32.6234 13.8794 30.7908 13.9468 30.016C14.0142 30.3192 14.1489 31.0266 14.1489 31.4309C14.1489 31.9362 13.9468 32.6436 13.7447 33.149C13.5043 33.7498 12.633 34.8671 10.6117 36.6862C8.59043 38.5054 6.54091 41.3325 5.96277 43.7607C5.45745 45.883 6.06383 48.6454 6.67022 49.9256C6.36703 49.6561 5.49788 49.0969 4.44681 48.2075C3.13298 47.0958 1.71809 44.1649 3.13298 41.133C4.54788 38.1011 10.1064 35.1702 11.9255 33.7554Z" fill="#1C558E"/>
<path d="M7.07448 20.516C5.2149 21.8096 4.41313 24.6259 4.24469 25.9734C4.24469 25.4007 4.08298 23.9521 4.24469 22.7394C4.44681 21.2234 4.54788 21.2234 4.75 20.3138C4.95213 19.4043 4.75 18.4947 4.75 17.9894C4.75 17.484 2.82979 15.867 2.62766 15.5638C2.42553 15.2606 2.32447 14.25 1.81915 13.9468C1.4149 13.7043 0.437944 13.711 0 13.7447C0.235816 13.4078 0.929788 12.5117 1.81915 12.4308C2.93085 12.3298 3.23405 12.633 3.73937 12.9362C4.24469 13.2394 4.75 13.2394 5.55852 13.4415C6.36703 13.6436 7.57979 14.3511 9.19682 15.1596C10.4904 15.8064 11.2181 15.6986 11.4202 15.5638C11.1844 15.766 10.6926 16.1904 10.6117 16.2713C10.5106 16.3723 9.90427 16.6755 9.60107 17.383C9.35852 17.9489 9.76951 18.4947 10.2075 18.6968C9.93795 18.6968 8.93405 19.2223 7.07448 20.516Z" fill="#1C558E"/>
<path d="M89.3784 25.6673H92L80.9039 43.0126H78.2823L89.3784 25.6673Z" fill="#1C558E"/>
<path d="M80.9039 25.6673H78.2823L89.3784 43.0126H92L80.9039 25.6673Z" fill="#2FC8E8"/>
<path d="M43.0881 47.4288V51.7922C43.0881 51.997 43.132 52.1433 43.2198 52.2311C43.3076 52.3189 43.4569 52.3628 43.6676 52.3628H44.3172L44.405 52.9335C44.3114 52.9569 44.2031 52.9774 44.0802 52.9949C43.9573 53.0125 43.8373 53.0242 43.7202 53.03C43.6032 53.0418 43.5095 53.0476 43.4393 53.0476C43.0823 53.0476 42.8101 52.9481 42.6228 52.7491C42.4355 52.5501 42.3419 52.2633 42.3419 51.8887V47.4288H43.0881ZM44.4489 48.6931V49.2813H41.5693V48.737L42.4121 48.6931H44.4489Z" fill="#2FC8E8"/>
<path d="M46.4669 48.6931L46.5635 49.5095L46.6337 49.6412V52.9686H45.8875V48.6931H46.4669ZM48.5652 48.5877L48.4774 49.2901H48.2316C47.9799 49.2901 47.7282 49.3427 47.4765 49.4481C47.2249 49.5476 46.9176 49.691 46.5547 49.8783L46.4933 49.413C46.8093 49.1554 47.1254 48.9535 47.4414 48.8072C47.7633 48.6609 48.0735 48.5877 48.372 48.5877H48.5652Z" fill="#2FC8E8"/>
<path d="M51.9572 48.5877C52.2733 48.5877 52.5396 48.6316 52.7561 48.7194C52.9786 48.8013 53.1454 48.9418 53.2566 49.1408C53.3678 49.3398 53.4234 49.612 53.4234 49.9573V52.9686H52.8352L52.721 52.038L52.6684 51.9414V49.9573C52.6684 49.6939 52.6069 49.5066 52.484 49.3954C52.3669 49.2783 52.1387 49.2198 51.7992 49.2198C51.5768 49.2198 51.2959 49.2315 50.9564 49.2549C50.6228 49.2783 50.2921 49.3047 49.9643 49.3339L49.8941 48.7809C50.0931 48.7457 50.3096 48.7135 50.5438 48.6843C50.7837 48.655 51.0266 48.6316 51.2724 48.614C51.5183 48.5965 51.7465 48.5877 51.9572 48.5877ZM53.0722 50.3348L53.0634 50.8967L51.0178 50.9054C50.813 50.9113 50.6696 50.9669 50.5877 51.0723C50.5057 51.1718 50.4647 51.3122 50.4647 51.4937V51.7658C50.4647 51.9882 50.5174 52.1521 50.6228 52.2575C50.7281 52.357 50.8979 52.4067 51.132 52.4067C51.2959 52.4067 51.4802 52.3774 51.6851 52.3189C51.8958 52.2545 52.1065 52.158 52.3172 52.0292C52.5279 51.9004 52.721 51.7366 52.8966 51.5376V52.0907C52.8322 52.1726 52.7386 52.2692 52.6157 52.3804C52.4986 52.4857 52.3552 52.5911 52.1855 52.6964C52.0216 52.7959 51.8372 52.8808 51.6324 52.951C51.4334 53.0154 51.2168 53.0476 50.9827 53.0476C50.731 53.0476 50.5086 53.0037 50.3155 52.9159C50.1223 52.8223 49.9702 52.6877 49.859 52.5121C49.7536 52.3306 49.7009 52.1111 49.7009 51.8536V51.3883C49.7009 51.0547 49.8034 50.7972 50.0082 50.6157C50.2189 50.4284 50.5116 50.3348 50.8861 50.3348H53.0722Z" fill="#2FC8E8"/>
<path d="M56.7053 48.5877C56.9863 48.5877 57.2643 48.6258 57.5394 48.7018C57.8145 48.7721 58.0778 48.8833 58.3295 49.0355L58.2856 49.5008C58.0105 49.4188 57.7676 49.3544 57.5569 49.3076C57.3462 49.2608 57.1209 49.2374 56.8809 49.2374C56.6351 49.2374 56.4361 49.2813 56.2839 49.3691C56.1376 49.451 56.0293 49.6061 55.9591 49.8344C55.8889 50.0626 55.8537 50.3875 55.8537 50.8089C55.8537 51.2303 55.8859 51.558 55.9503 51.7922C56.0205 52.0263 56.1288 52.1902 56.2751 52.2838C56.4215 52.3774 56.6088 52.4243 56.837 52.4243C57.0068 52.4243 57.1589 52.4038 57.2935 52.3628C57.434 52.316 57.5803 52.2428 57.7325 52.1433C57.8905 52.0438 58.0749 51.918 58.2856 51.7658L58.3558 52.2926C58.1217 52.5091 57.8554 52.6935 57.5569 52.8457C57.2584 52.9979 56.9365 53.0739 56.5912 53.0739C56.0527 53.0739 55.6664 52.8837 55.4323 52.5033C55.2041 52.1228 55.0899 51.561 55.0899 50.8177C55.0899 50.2616 55.1485 49.8227 55.2655 49.5008C55.3826 49.173 55.5611 48.9389 55.8011 48.7984C56.041 48.6579 56.3425 48.5877 56.7053 48.5877ZM58.9353 46.8231V52.9686H58.3558L58.2681 52.2223L58.189 52.1609V49.2286L58.2417 49.0969C58.2183 48.933 58.2037 48.775 58.1978 48.6228C58.192 48.4706 58.189 48.3097 58.189 48.14V46.8231H58.9353Z" fill="#2FC8E8"/>
<path d="M62.5984 48.5877C63.2422 48.5877 63.7075 48.7048 63.9943 48.9389C64.2869 49.173 64.4333 49.5212 64.4333 49.9836C64.4391 50.3641 64.3601 50.6626 64.1962 50.8791C64.0323 51.0898 63.7719 51.1952 63.4149 51.1952H60.9215V50.6157H63.2217C63.4149 50.6157 63.5407 50.5513 63.5992 50.4226C63.6578 50.288 63.687 50.1416 63.687 49.9836C63.6812 49.7085 63.5992 49.5125 63.4412 49.3954C63.2832 49.2783 63.0139 49.2198 62.6335 49.2198C62.3233 49.2198 62.0775 49.2666 61.896 49.3603C61.7205 49.4481 61.5946 49.6061 61.5185 49.8344C61.4483 50.0568 61.4132 50.3699 61.4132 50.7738C61.4132 51.2303 61.4571 51.5785 61.5449 51.8185C61.6385 52.0585 61.7848 52.2223 61.9838 52.3101C62.1828 52.3979 62.4462 52.4418 62.774 52.4418C63.0022 52.4418 63.251 52.4331 63.5202 52.4155C63.7953 52.3921 64.0411 52.3657 64.2577 52.3365L64.3367 52.8369C64.2021 52.8896 64.0353 52.9335 63.8363 52.9686C63.6431 53.0037 63.4412 53.03 63.2305 53.0476C63.0256 53.0652 62.8413 53.0739 62.6774 53.0739C62.1858 53.0739 61.7907 53.0008 61.4922 52.8545C61.1937 52.7023 60.9742 52.4623 60.8337 52.1346C60.6991 51.8009 60.6318 51.362 60.6318 50.8177C60.6318 50.2558 60.6991 49.8139 60.8337 49.492C60.9742 49.1642 61.1878 48.933 61.4746 48.7984C61.7673 48.6579 62.1419 48.5877 62.5984 48.5877Z" fill="#2FC8E8"/>
<defs>
<linearGradient id="paint0_linear_1429_69" x1="17.0404" y1="26.216" x2="24.7223" y2="44.1405" gradientUnits="userSpaceOnUse">
<stop stop-color="#2FC8E8"/>
<stop offset="1" stop-color="#1C558E"/>
</linearGradient>
</defs>
</svg>
